# xmcd
#
# Track frame offsets: 
#        150
#        10242
#        26687
#        29374
#        47411
#        64413
#        80465
#        101175
#        121538
#        125356
#        144265
#        147991
#        152648
#
# Disc length: 2318 seconds
#
# Revision: 0
# Processed by: cddbd v1.5.2PL0 Copyright (c) Steve Scherf et al.
# Submitted via: ExactAudioCopy v0.99pb5
#
DISCID=a6090c0d
DTITLE=Комбинация - Московская прописка
DYEAR=2004
DGENRE=Pop
TTITLE0=Увертюра
TTITLE1=Московская прописка
TTITLE2=Тайное признание комсомолки Зоси
TTITLE3=Мама - Russia
TTITLE4=Не верю я в тебя
TTITLE5=Лешка
TTITLE6=Русский хип-хоп
TTITLE7=Бухгалтер
TTITLE8=Предчувствие коммунизма №43
TTITLE9=Любовь уходит не спеша
TTITLE10=Напилася я пьяна
TTITLE11=Призрак замка Усть-Курдюм
TTITLE12=American Boy
EXTD=
EXTT0=
EXTT1=
EXTT2=
EXTT3=
EXTT4=
EXTT5=
EXTT6=
EXTT7=
EXTT8=
EXTT9=
EXTT10=
EXTT11=
EXTT12=
PLAYORDER=
